<svg width="35" height="35" viewBox="0 0 35 35" fill="none" xmlns="http://www.w3.org/2000/svg">
<path d="M35 16.427V18.5352C34.9816 18.6459 34.9579 18.7539 34.9421 18.8646C34.8474 19.5498 34.7869 20.2455 34.6553 20.9227C33.9703 24.3831 32.2554 27.5548 29.7362 30.0204C27.217 32.4861 24.0115 34.1302 20.5415 34.7365C19.9074 34.8445 19.2654 34.9157 18.626 35H16.4448C16.3589 34.973 16.2709 34.9536 16.1816 34.942C14.6274 34.8296 13.0963 34.5014 11.6323 33.967C9.33952 33.1541 7.24164 31.8705 5.47313 30.1982C3.70462 28.526 2.30449 26.5021 1.36252 24.2564C0.420541 22.0106 -0.0425045 19.5925 0.00306475 17.157C0.048634 14.7216 0.601812 12.3225 1.62714 10.1137C2.65246 7.90483 4.12731 5.93491 5.95714 4.33022C7.78697 2.72553 9.9314 1.52146 12.253 0.795208C14.5745 0.068955 17.022 -0.163459 19.4385 0.112866C21.8549 0.38919 24.1871 1.16816 26.2855 2.39983C30.9506 5.11146 33.7528 9.22765 34.7369 14.5402C34.8527 15.1621 34.9132 15.7972 35 16.427ZM18.6865 15.3413C18.6865 14.5218 18.6681 13.7602 18.6865 12.996C18.705 12.2318 19.1075 11.8391 19.8469 11.7785C20.3337 11.7416 20.8231 11.7548 21.3125 11.739C21.694 11.739 21.8387 11.5809 21.8545 11.1935C21.865 10.5699 21.865 9.94355 21.8545 9.31462C21.8545 8.93515 21.6835 8.78757 21.3072 8.78757C20.5889 8.78757 19.8732 8.77176 19.1575 8.78757C17.1999 8.85609 15.7922 10.0867 15.5475 12.0315C15.4291 12.9855 15.4817 13.9631 15.4581 14.9302C15.4581 15.062 15.4581 15.1938 15.4581 15.3545C14.8292 15.3545 14.2503 15.3545 13.6715 15.3545C13.2531 15.3545 13.0952 15.5205 13.09 15.9343C13.09 16.2979 13.09 16.6642 13.09 17.0279C13.09 18.9384 12.869 18.6933 14.7503 18.7065H15.4686V19.136C15.4686 21.3338 15.4686 23.5298 15.4686 25.7241C15.4686 26.1984 15.5291 26.2511 15.9948 26.2511C16.6965 26.2511 17.3981 26.2511 18.0998 26.2511C18.5997 26.2511 18.676 26.1773 18.676 25.6845V18.7144C18.8234 18.7144 18.9391 18.6986 19.047 18.6986C19.6706 18.6986 20.2968 18.6986 20.9204 18.6986C21.544 18.6986 21.623 18.6195 21.6914 18.0108C21.7598 17.4021 21.8308 16.767 21.9098 16.1451C21.9966 15.4836 21.8677 15.3361 21.1914 15.3334L18.6865 15.3413Z" fill="#6C06D1"/>
</svg>
