<svg width="36" height="36" viewBox="0 0 36 36" fill="none" xmlns="http://www.w3.org/2000/svg">
<path d="M0 18.7386V16.5357C0.0212332 16.4375 0.0451153 16.3366 0.0610402 16.2384C0.180477 15.4422 0.249483 14.6194 0.424657 13.8285C2.54797 4.17798 12.3285 -1.88409 21.8649 0.531183C25.7857 1.5049 29.2527 3.7965 31.6852 7.02204C34.1176 10.2476 35.3676 14.2111 35.2258 18.2485C35.084 22.2859 33.5589 26.152 30.9061 29.1989C28.2534 32.2458 24.634 34.2885 20.6546 34.9846C20.0123 35.0935 19.3646 35.1651 18.7223 35.2501H16.5194C16.4454 35.2232 16.369 35.2036 16.2911 35.1917C14.8069 35.1014 13.343 34.8003 11.9437 34.2972C5.53832 31.9262 1.64999 27.392 0.278682 20.6947C0.145975 20.0577 0.0902409 19.3942 0 18.7386ZM8.80911 17.6372V21.1114C8.79796 21.816 8.92869 22.5156 9.19351 23.1686C9.45833 23.8216 9.85183 24.4146 10.3506 24.9123C10.8493 25.4101 11.4431 25.8024 12.0967 26.066C12.7502 26.3295 13.45 26.4588 14.1546 26.4463C16.4707 26.4463 18.7869 26.4463 21.1031 26.4463C21.804 26.4569 22.5 26.3271 23.1499 26.0643C23.7998 25.8016 24.3904 25.4113 24.887 24.9165C25.3835 24.4216 25.7759 23.8324 26.0409 23.1834C26.3059 22.5344 26.4382 21.8389 26.43 21.138C26.43 18.8076 26.43 16.4791 26.43 14.1523C26.4386 13.4512 26.3065 12.7555 26.0416 12.1064C25.7768 11.4573 25.3844 10.8678 24.8878 10.3729C24.3912 9.87806 23.8004 9.48777 23.1503 9.22515C22.5002 8.96253 21.8041 8.83291 21.1031 8.84397C18.7763 8.84397 16.4477 8.84397 14.1174 8.84397C13.4178 8.83505 12.7236 8.96627 12.0755 9.22988C11.4274 9.49349 10.8387 9.88416 10.344 10.3789C9.8493 10.8736 9.45863 11.4623 9.19502 12.1104C8.93141 12.7584 8.8002 13.4527 8.80911 14.1523C8.80645 15.2988 8.80911 16.4667 8.80911 17.6372Z" fill="#6C06D1"/>
<path d="M17.6314 24.676C16.4848 24.676 15.3356 24.676 14.1811 24.676C12.0577 24.676 10.5873 23.1976 10.582 21.0876C10.582 18.7873 10.582 16.4941 10.582 14.208C10.582 12.0847 12.071 10.6196 14.1811 10.6196C16.4813 10.6196 18.7754 10.6196 21.0632 10.6196C23.1547 10.6196 24.6384 12.0927 24.6463 14.1868C24.6463 16.4871 24.6463 18.7917 24.6463 21.1008C24.6463 23.195 23.1627 24.6627 21.0659 24.676C19.9246 24.676 18.778 24.676 17.6314 24.676ZM17.6447 22.197C18.5439 22.1918 19.4215 21.9203 20.1666 21.4168C20.9117 20.9134 21.491 20.2005 21.8314 19.3681C22.1717 18.5358 22.2579 17.6213 22.0791 16.74C21.9003 15.8587 21.4644 15.0501 20.8265 14.4163C20.1886 13.7825 19.3773 13.3518 18.4948 13.1786C17.6124 13.0054 16.6985 13.0975 15.8683 13.4431C15.0382 13.7888 14.329 14.3727 13.8303 15.121C13.3317 15.8693 13.0658 16.7486 13.0663 17.6478C13.0666 18.2472 13.1856 18.8406 13.4162 19.3939C13.6469 19.9471 13.9847 20.4493 14.4103 20.8714C14.8359 21.2935 15.3408 21.6272 15.8959 21.8534C16.451 22.0795 17.0453 22.1936 17.6447 22.189V22.197ZM22.2178 14.208C22.5126 14.2052 22.7943 14.0864 23.002 13.8772C23.2097 13.668 23.3266 13.3854 23.3272 13.0906C23.3293 12.8663 23.2645 12.6465 23.141 12.4592C23.0175 12.2719 22.8409 12.1257 22.6339 12.0393C22.4269 11.9528 22.1988 11.9301 21.9788 11.9739C21.7588 12.0178 21.5569 12.1262 21.3988 12.2854C21.2407 12.4446 21.1337 12.6473 21.0915 12.8676C21.0492 13.0879 21.0736 13.3159 21.1615 13.5222C21.2494 13.7286 21.3969 13.9041 21.585 14.0263C21.7732 14.1484 21.9935 14.2117 22.2178 14.208Z" fill="#6C06D1"/>
<path d="M20.3971 17.6504C20.3939 18.2003 20.2277 18.737 19.9193 19.1923C19.611 19.6477 19.1745 20.0014 18.6651 20.2085C18.1556 20.4157 17.5962 20.4671 17.0575 20.3561C16.5189 20.2451 16.0253 19.9768 15.6392 19.5852C15.2532 19.1935 14.992 18.6961 14.8887 18.156C14.7855 17.6158 14.8449 17.0571 15.0593 16.5507C15.2738 16.0443 15.6337 15.6129 16.0934 15.3112C16.5532 15.0094 17.0922 14.8509 17.6421 14.8556C18.0069 14.8566 18.368 14.9299 18.7044 15.0712C19.0408 15.2125 19.3459 15.419 19.602 15.6789C19.8581 15.9387 20.0603 16.2467 20.1967 16.5851C20.3332 16.9235 20.4013 17.2855 20.3971 17.6504Z" fill="#6C06D1"/>
</svg>
