<svg width="113" height="25" viewBox="0 0 113 25" fill="none" xmlns="http://www.w3.org/2000/svg">
<g clip-path="url(#clip0_282_68)">
<path d="M27.2771 19.8384V6.75248H29.7378L29.9472 9.0478C30.3486 8.23871 30.9333 7.60552 31.7011 7.14822C32.4865 6.67333 33.3852 6.43588 34.3974 6.43588C35.9681 6.43588 37.1984 6.92837 38.0885 7.91333C38.996 8.89829 39.4497 10.3669 39.4497 12.3193V19.8384H36.7011V12.6095C36.7011 10.0767 35.6715 8.81035 33.6121 8.81035C32.5825 8.81035 31.7273 9.17971 31.0467 9.91844C30.3836 10.6572 30.0519 11.7125 30.0519 13.0844V19.8384H27.2771ZM46.8539 20.155C45.2833 20.155 44.0442 19.6625 43.1367 18.6776C42.2467 17.6927 41.8016 16.224 41.8016 14.2716V6.75248H44.5765V13.9814C44.5765 16.5142 45.6061 17.7806 47.6654 17.7806C48.695 17.7806 49.5416 17.4112 50.2047 16.6725C50.8678 15.9338 51.1994 14.8784 51.1994 13.5065V6.75248H53.9743V19.8384H51.5136L51.3041 17.5431C50.9028 18.3523 50.3094 18.9942 49.5241 19.4691C48.7562 19.9263 47.8662 20.155 46.8539 20.155ZM56.8497 19.8384V6.75248H59.3366L59.5722 9.23248C60.0259 8.37063 60.6542 7.69348 61.457 7.20099C62.2772 6.69092 63.2633 6.43588 64.4151 6.43588V9.36439H63.6559C62.8881 9.36439 62.1986 9.49631 61.5879 9.76014C60.9945 10.0064 60.5146 10.4374 60.1481 11.0529C59.7991 11.651 59.6246 12.4863 59.6246 13.5593V19.8384H56.8497ZM71.5847 19.8384C70.3108 19.8384 69.2985 19.5306 68.5481 18.915C67.7977 18.2818 67.4224 17.165 67.4224 15.5644V9.10056H65.1973V6.75248H67.4224L67.7627 3.42822H70.1972V6.75248H73.8621V9.10056H70.1972V15.5644C70.1972 16.2855 70.3456 16.7868 70.6423 17.0682C70.9564 17.3321 71.4888 17.464 72.2391 17.464H73.7312V19.8384H71.5847ZM80.8594 20.155C79.2888 20.155 78.0496 19.6625 77.1422 18.6776C76.2521 17.6927 75.8071 16.224 75.8071 14.2716V6.75248H78.582V13.9814C78.582 16.5142 79.6116 17.7806 81.6709 17.7806C82.7005 17.7806 83.5469 17.4112 84.2102 16.6725C84.8733 15.9338 85.2049 14.8784 85.2049 13.5065V6.75248H87.9798V19.8384H85.5191L85.3096 17.5431C84.9081 18.3523 84.3149 18.9942 83.5296 19.4691C82.7616 19.9263 81.8715 20.155 80.8594 20.155ZM90.8552 19.8384V6.75248H93.3421L93.5777 9.23248C94.0314 8.37063 94.6597 7.69348 95.4625 7.20099C96.2827 6.69092 97.2688 6.43588 98.4206 6.43588V9.36439H97.6614C96.8934 9.36439 96.2041 9.49631 95.5934 9.76014C95 10.0064 94.5201 10.4374 94.1536 11.0529C93.8045 11.651 93.6301 12.4863 93.6301 13.5593V19.8384H90.8552ZM105.861 20.155C104.587 20.155 103.452 19.8736 102.458 19.3108C101.48 18.7304 100.712 17.9301 100.154 16.9099C99.5953 15.8897 99.3162 14.7025 99.3162 13.3482C99.3162 11.9763 99.5866 10.7714 100.128 9.73376C100.686 8.69603 101.454 7.88695 102.431 7.30652C103.426 6.7261 104.578 6.43588 105.887 6.43588C107.161 6.43588 108.269 6.7261 109.211 7.30652C110.154 7.86935 110.887 8.62567 111.41 9.57546C111.934 10.5252 112.196 11.5718 112.196 12.715C112.196 12.891 112.187 13.0844 112.169 13.2955C112.169 13.4889 112.161 13.7088 112.143 13.955H102.039C102.126 15.2214 102.536 16.1888 103.269 16.8572C104.019 17.508 104.883 17.8333 105.861 17.8333C106.646 17.8333 107.3 17.6574 107.824 17.3057C108.365 16.9363 108.766 16.4438 109.028 15.8282H111.803C111.454 17.0595 110.756 18.0884 109.709 18.915C108.679 19.7416 107.396 20.155 105.861 20.155ZM105.861 8.7312C104.936 8.7312 104.115 9.01263 103.4 9.57546C102.684 10.1208 102.248 10.9474 102.091 12.0555H109.421C109.368 11.0353 109.011 10.2263 108.347 9.62822C107.684 9.0302 106.855 8.7312 105.861 8.7312Z" fill="#120A20"/>
<path d="M0.277587 12.157C0.173843 12.0556 0 12.1296 0 12.2754V21.2273C0 21.2614 0.0105214 21.2947 0.0301112 21.3226L1.82946 23.882C1.92257 24.0145 2.12959 23.9459 2.12653 23.7836L1.93916 13.8498C1.93835 13.8062 1.92051 13.7648 1.88956 13.7345L0.277587 12.157Z" fill="#412574"/>
<path d="M13.6326 12.5172C13.524 12.5215 13.4415 12.42 13.4671 12.3135L15.6963 3.04401C15.7141 2.97006 15.7798 2.91797 15.8553 2.91797H19.5753C19.6658 2.91797 19.739 2.99179 19.739 3.08286V12.1161C19.739 12.2047 19.6696 12.2774 19.5819 12.2809L13.6326 12.5172Z" fill="#FDACD5"/>
<path d="M12.0629 12.5376C12.1801 12.532 12.2535 12.4075 12.2024 12.301L7.74808 3.02713C7.71987 2.96839 7.65996 2.93195 7.59527 2.93418L2.72934 3.10094C2.64118 3.10395 2.57129 3.17685 2.57129 3.26573V12.8176C2.57129 12.9118 2.64933 12.9868 2.74262 12.9823L12.0629 12.5376Z" fill="#FDCD00"/>
<path d="M0.886342 0.393555C0.745141 0.393555 0.67025 0.561713 0.764102 0.668036L2.22056 2.31809C2.2539 2.35585 2.30259 2.37614 2.35266 2.37308L6.70071 2.1084C6.83366 2.1003 6.90182 1.94405 6.81784 1.83985L5.70133 0.454483C5.67026 0.415931 5.62361 0.393555 5.57433 0.393555H0.886342Z" fill="#FFAD09"/>
<path d="M3.0332 24.6156C2.94279 24.6183 2.86738 24.5465 2.86488 24.4554L2.57575 13.9561C2.57328 13.8662 2.64263 13.791 2.7317 13.7869L19.5735 12.9982C19.6646 12.9941 19.7415 13.0655 19.7446 13.1573L20.1184 24.0806C20.1216 24.1709 20.0519 24.2469 19.9622 24.2511L15.6095 24.4489C15.5126 24.4534 15.4324 24.3751 15.4343 24.2774C15.4537 23.2704 15.3624 18.3789 11.7514 18.4915C7.90003 18.615 8.27316 23.2802 8.39636 24.2727C8.4087 24.3721 8.33352 24.4598 8.23419 24.4626L3.0332 24.6156Z" fill="#6C06D1"/>
<path d="M11.229 8.28091C11.2134 8.24819 11.209 8.21122 11.2164 8.17572L12.6897 1.10017C12.715 0.978774 12.8592 0.927904 12.9541 1.00692L15.0639 2.76426C15.1122 2.80448 15.1335 2.86892 15.1187 2.93026L13.0647 11.4611C13.0284 11.6118 12.8247 11.6333 12.7582 11.4936L11.229 8.28091Z" fill="#FF72B9"/>
<path d="M13.8231 0.571363C13.6759 0.579723 13.6139 0.764783 13.726 0.861361L15.3833 2.28863C15.4125 2.31383 15.4496 2.32782 15.4881 2.32817L19.1351 2.36108C19.2899 2.36249 19.3599 2.16663 19.2398 2.06825L17.2292 0.421211C17.1977 0.395306 17.1576 0.38223 17.1168 0.384538L13.8231 0.571363Z" fill="#FF72B9"/>
<path d="M10.1645 19.7481C10.0917 19.8061 10.095 19.9122 10.1643 19.9743L14.5329 23.8912C14.6298 23.9781 14.7787 23.9229 14.7876 23.7924C14.8392 23.0382 14.8267 21.0481 13.4161 19.9735C11.764 18.7053 10.5473 19.4432 10.1645 19.7481Z" fill="#412574"/>
<path d="M0.28481 1.32546C0.184286 1.21373 0 1.28541 0 1.43622V11.0113C0 11.0562 0.0180576 11.099 0.050025 11.13L1.65329 12.6886C1.75824 12.7907 1.93319 12.7138 1.93046 12.5669L1.7527 3.01745C1.75196 2.97756 1.73689 2.93932 1.7103 2.90977L0.28481 1.32546Z" fill="#FFAD09"/>
</g>
<defs>
<clipPath id="clip0_282_68">
<rect width="112.196" height="24.2314" fill="white" transform="translate(0 0.384277)"/>
</clipPath>
</defs>
</svg>
