<svg width="123" height="147" viewBox="0 0 123 147" fill="none" xmlns="http://www.w3.org/2000/svg">
<path d="M1.69663 71.4153C1.06254 70.7996 0 71.2489 0 72.1327V126.422C0 126.629 0.0643077 126.831 0.184042 127L11.1818 142.522C11.7509 143.325 13.0162 142.909 12.9975 141.925L11.8523 81.6805C11.8473 81.4169 11.7383 81.1658 11.5491 80.9821L1.69663 71.4153Z" fill="#412574"/>
<path d="M83.3232 73.6002C82.6598 73.6263 82.1555 73.0106 82.3119 72.3654L95.9369 16.1499C96.0457 15.7014 96.4473 15.3855 96.9088 15.3855H119.646C120.199 15.3855 120.646 15.8332 120.646 16.3855V71.1677C120.646 71.7046 120.222 72.1457 119.686 72.1669L83.3232 73.6002Z" fill="#FDACD5"/>
<path d="M73.7299 73.7239C74.4464 73.69 74.8952 72.935 74.5827 72.2893L47.3575 16.0475C47.1851 15.6913 46.8189 15.4703 46.4235 15.4838L16.6826 16.4951C16.1438 16.5134 15.7166 16.9555 15.7166 17.4945V75.422C15.7166 75.9929 16.1936 76.4479 16.7638 76.4209L73.7299 73.7239Z" fill="#FDCD00"/>
<path d="M5.41698 0.0761642C4.55395 0.0761642 4.09621 1.09601 4.66984 1.74082L13.5718 11.7476C13.7756 11.9766 14.0732 12.0996 14.3792 12.0811L40.9548 10.4759C41.7674 10.4268 42.184 9.47919 41.6707 8.84727L34.8465 0.44569C34.6566 0.21191 34.3715 0.0761642 34.0703 0.0761642H5.41698Z" fill="#FFAD09"/>
<path d="M18.5398 146.971C17.9872 146.987 17.5263 146.552 17.511 145.999L15.7438 82.3262C15.7287 81.7814 16.1526 81.3248 16.697 81.2995L119.635 76.5174C120.192 76.4916 120.662 76.9253 120.681 77.4819L122.966 143.726C122.985 144.274 122.559 144.735 122.011 144.76L95.407 145.96C94.8148 145.987 94.3244 145.512 94.3359 144.92C94.4545 138.813 93.8968 109.148 71.8258 109.831C48.2862 110.58 50.5668 138.872 51.3198 144.891C51.3952 145.494 50.9357 146.026 50.3286 146.043L18.5398 146.971Z" fill="#6C06D1"/>
<path d="M68.6318 47.9095C68.5367 47.7111 68.5096 47.4869 68.5548 47.2716L77.56 4.36176C77.7145 3.62559 78.5959 3.31713 79.1757 3.79632L92.0713 14.4537C92.3664 14.6976 92.4963 15.0884 92.4061 15.4604L79.8517 67.1962C79.63 68.1096 78.3848 68.2404 77.9783 67.3929L68.6318 47.9095Z" fill="#FF72B9"/>
<path d="M84.4876 1.15481C83.5875 1.20547 83.2088 2.32775 83.8942 2.91346L94.0233 11.5692C94.202 11.722 94.4289 11.8069 94.664 11.809L116.955 12.0086C117.901 12.0171 118.329 10.8293 117.595 10.2327L105.306 0.244181C105.113 0.0870745 104.868 0.00775765 104.619 0.0217545L84.4876 1.15481Z" fill="#FF72B9"/>
<path d="M62.126 117.452C61.6808 117.804 61.7009 118.447 62.1249 118.824L88.8257 142.578C89.418 143.105 90.3281 142.77 90.3826 141.979C90.698 137.405 90.6215 125.336 82 118.819C71.9022 111.128 64.4654 115.603 62.126 117.452Z" fill="#412574"/>
<path d="M1.74078 5.72796C1.12637 5.05041 0 5.48506 0 6.39971V64.4685C0 64.7399 0.110369 64.9997 0.305756 65.1882L10.105 74.6404C10.7465 75.2591 11.8158 74.793 11.7991 73.9019L10.7126 15.9891C10.7081 15.7472 10.616 15.5153 10.4535 15.3361L1.74078 5.72796Z" fill="#FFAD09"/>
</svg>
