<svg width="35" height="35" viewBox="0 0 35 35" fill="none" xmlns="http://www.w3.org/2000/svg">
<path d="M16.4688 0C17.1749 0 17.882 0 18.5882 0C18.6759 0.0191406 18.7627 0.0492188 18.8513 0.055599C21.4814 0.253385 23.9525 0.988021 26.2181 2.33516C30.8735 5.10326 33.7283 9.15195 34.7314 14.484C34.8511 15.1193 34.9123 15.7646 35 16.4062V18.5254C34.9808 18.6348 34.9571 18.7441 34.9415 18.8544C34.8465 19.5417 34.7862 20.2353 34.6547 20.9152C33.2935 27.9599 27.5893 33.5271 20.5075 34.732C19.8708 34.8405 19.2277 34.9116 18.5873 35H16.3993C16.3126 34.9799 16.2267 34.948 16.139 34.9417C14.2954 34.8077 12.5195 34.3839 10.8167 33.6729C3.18219 30.4819 -1.12791 22.6352 0.257026 14.4621C1.44737 7.43932 7.03369 1.71172 14.0397 0.35C14.8417 0.194141 15.6585 0.114844 16.4688 0ZM15.9809 14.8941C14.7276 14.8914 13.3006 15.2651 12.3779 15.8257C9.70398 17.4526 8.8352 20.7521 10.3142 23.6651C11.8124 26.6155 15.3177 27.599 18.1122 25.8271C20.0983 24.5674 21.0447 22.6962 21.1096 20.3829C21.1616 18.5163 21.137 16.6478 21.147 14.7802C21.147 14.648 21.147 14.5168 21.147 14.3309C21.4887 14.5132 21.7737 14.6717 22.0642 14.8185C23.0107 15.2961 23.9973 15.6178 25.0762 15.5786C25.2744 15.5714 25.3904 15.5349 25.3868 15.2924C25.374 14.484 25.3758 13.6755 25.3868 12.8671C25.3895 12.6556 25.3 12.6018 25.1082 12.5781C23.0929 12.3293 21.8614 11.2693 21.3179 9.31693C21.2247 8.98151 21.1598 8.63789 21.0822 8.29792H18.1058C18.0985 8.45833 18.0857 8.60234 18.0867 8.74635C18.094 12.4815 18.1159 16.2176 18.0985 19.9527C18.0958 20.5579 17.9853 21.1814 17.8117 21.762C17.5513 22.6315 17.0078 23.2896 16.0723 23.5211C14.7148 23.8574 13.3499 23.1848 12.7744 21.8987C12.1377 20.4759 12.8548 18.9538 14.4444 18.3932C14.945 18.2164 15.4648 18.0934 15.9846 17.943V14.8941H15.9809Z" fill="#6C06D1"/>
</svg>
