<svg width="34" height="22" viewBox="0 0 34 22" fill="none" xmlns="http://www.w3.org/2000/svg">
<path d="M29.1694 9.52794C19.8635 10.0559 10.8157 11.3833 1.99997 8.53403" stroke="white" stroke-width="3" stroke-linecap="round"/>
<path d="M20.1486 0.0573488C20.5357 0.07303 21.1212 0.307834 21.9052 0.761764C22.0479 0.83791 22.2149 0.915036 22.406 0.993141C22.5718 1.1054 22.7859 1.21962 23.0484 1.33579C25.0034 2.25933 27.1303 3.47128 29.429 4.97164C31.7276 6.472 32.8553 7.85457 32.812 9.11933C32.7843 9.92737 32.5915 10.6056 32.2336 11.154C29.9828 13.9125 27.9008 15.9918 25.9873 17.3919C24.0727 18.8271 21.8465 20.1617 19.3088 21.3958C18.9399 21.5568 18.6429 21.3864 18.4178 20.8848C18.1927 20.3831 18.0753 19.921 18.0655 19.4984C18.7162 18.8915 19.959 17.9744 21.7938 16.747C23.6517 15.5558 25.2416 14.4064 26.5636 13.299C27.8601 12.2257 29.0061 10.9529 30.0014 9.48041C28.1624 7.99868 26.4002 6.74873 24.715 5.73057C23.0297 4.71241 21.7897 4.13446 20.9949 3.99673C20.4166 3.90294 19.9654 3.63839 19.6411 3.20308C19.2914 2.80193 19.128 2.26759 19.1509 1.60008C19.1689 1.07309 19.2553 0.672011 19.4101 0.396834C19.5637 0.156788 19.8098 0.0436276 20.1486 0.0573488Z" fill="white"/>
</svg>
